HIERARCHY
ROOT Hip
{
  OFFSET 0.0 0.0 0.0
  CHANNELS 6 Xposition Yposition Zposition Xrotation Yrotation Zrotation
  JOINT LowerSpine
  {
    OFFSET 0.0 0.061367 -0.03653
    CHANNELS 3 Xrotation Yrotation Zrotation
    JOINT MiddleSpine
    {
      OFFSET 0.0 0.056002 0.002633
      CHANNELS 3 Xrotation Yrotation Zrotation
      JOINT Chest
      {
        OFFSET 0.0 0.069296 -0.013882
        CHANNELS 3 Xrotation Yrotation Zrotation
        JOINT Neck
        {
          OFFSET 0.0 0.156156 -0.002923
          CHANNELS 3 Xrotation Yrotation Zrotation
          JOINT Head
          {
            OFFSET 0.0 0.088183 0.023986
            CHANNELS 3 Xrotation Yrotation Zrotation
            End Site
            {
              OFFSET 1e-06 0.123215 0.003678
            }
          }
        }
        JOINT LClavicle
        {
          OFFSET 0.014189 0.150698 0.046467
          CHANNELS 3 Xrotation Yrotation Zrotation
          JOINT LShoulder
          {
            OFFSET 0.082893 0.021616 -0.034976
            CHANNELS 3 Xrotation Yrotation Zrotation
            JOINT LForearm
            {
              OFFSET 0.195645 -0.000695 -0.001695
              CHANNELS 3 Xrotation Yrotation Zrotation
              JOINT LHand
              {
                OFFSET 0.163209 0.000474 -0.000977
                CHANNELS 3 Xrotation Yrotation Zrotation
                End Site
                {
                  OFFSET 0.0 0.006864 0.0
                }
              }
            }
          }
        }
        JOINT RClavicle
        {
          OFFSET -0.014189 0.150698 0.046467
          CHANNELS 3 Xrotation Yrotation Zrotation
          JOINT RShoulder
          {
            OFFSET -0.082908 0.021619 -0.034982
            CHANNELS 3 Xrotation Yrotation Zrotation
            JOINT RForearm
            {
              OFFSET -0.195645 -0.000695 -0.001695
              CHANNELS 3 Xrotation Yrotation Zrotation
              JOINT RHand
              {
                OFFSET -0.163209 0.000474 -0.000977
                CHANNELS 3 Xrotation Yrotation Zrotation
                End Site
                {
                  OFFSET 0.0 0.006864 0.0
                }
              }
            }
          }
        }
      }
    }
  }
  JOINT RThigh
  {
    OFFSET -0.072558 0.02774 -0.005953
    CHANNELS 3 Xrotation Yrotation Zrotation
    JOINT RShin
    {
      OFFSET -0.005253 -0.285537 0.0
      CHANNELS 3 Xrotation Yrotation Zrotation
      JOINT RFoot
      {
        OFFSET 0.0 -0.28038 0.0
        CHANNELS 3 Xrotation Yrotation Zrotation
        JOINT RToe
        {
          OFFSET 0.0 -0.030816 0.064441
          CHANNELS 3 Xrotation Yrotation Zrotation
          End Site
          {
            OFFSET 0.0 0.0 0.043231
          }
        }
      }
    }
  }
  JOINT LThigh
  {
    OFFSET 0.072557 0.027741 -0.005953
    CHANNELS 3 Xrotation Yrotation Zrotation
    JOINT LShin
    {
      OFFSET 0.005253 -0.285539 0.0
      CHANNELS 3 Xrotation Yrotation Zrotation
      JOINT LFoot
      {
        OFFSET 0.0 -0.28038 0.0
        CHANNELS 3 Xrotation Yrotation Zrotation
        JOINT LToe
        {
          OFFSET 0.0 -0.030816 0.064441
          CHANNELS 3 Xrotation Yrotation Zrotation
          End Site
          {
            OFFSET 0.0 0.0 0.043231
          }
        }
      }
    }
  }
}
MOTION
Frames: 17
Frame Time: 0.03333333333333333
-0.067975 0.566 -0.06313 7.432547 2.571676 6.84229 6.448019 6.289157 -11.499809 -0.515795 -1.186631 -10.745667 -2.68669 -1.006455 4.564134 3.715172 -8.055257 4.502901 -10.019007 9.246295 2.052119 -4.614071 9.681214 -5.895807 13.950412 -22.210274 -46.188847 4.056316 -53.918457 -7.429637 -8.797328 -5.1562 3.499067 5.409829 0.770905 19.92065 0.237908 44.849701 60.655769 1.12299 39.910782 5.177225 9.294228 1.57936 4.324584 -22.497278 0.948679 -10.444956 20.333235 -1.122709 16.378052 -8.753843 -0.50826 9.367696 5.288025 -5.733057 -5.208519 -15.45628 8.368132 0.366953 12.687142 15.190831 -1.103385 -1.570108 2.583563 -10.269118 -12.776763 6.458473 2.49042 
-0.077691 0.555844 -0.086247 2.505645 1.424541 9.212612 10.371152 6.348095 -11.304705 -5.138258 -2.112938 -13.174364 -2.645592 -1.062292 5.082355 16.132839 -8.879043 5.129824 -8.920497 11.097639 3.509018 -10.737545 7.138656 -5.581118 13.527873 -18.739771 -43.979801 1.64996 -50.5196 -10.044955 -9.68979 -8.354085 5.909043 -0.805056 10.122593 20.53215 3.558983 38.279766 55.823513 2.754254 40.829582 10.097548 12.237386 4.830815 5.638971 -20.562403 2.003786 -8.356377 21.327576 2.145835 9.780287 -9.888532 -3.991469 8.386941 5.444183 -10.966039 -6.22534 -10.587766 14.43886 -3.694937 8.06352 12.913024 4.761619 -0.933246 1.876546 -11.279798 -10.677364 9.486869 3.509173 
-0.08553 0.550526 -0.095139 2.799028 1.565147 10.052527 10.144287 6.601946 -12.138353 -6.341201 -2.562388 -14.035157 -3.484618 -2.58251 5.807048 16.92313 -9.628111 5.104927 -8.204952 12.133658 3.537825 -12.661464 6.809103 -5.130148 15.540298 -18.168243 -42.9935 1.664475 -47.734478 -11.513034 -9.952971 -9.106624 6.576279 -1.548638 12.084378 20.341755 5.078537 37.432392 53.298546 3.182357 42.767548 12.844453 12.878758 5.546037 5.648241 -21.730049 2.36297 -7.902384 20.811928 3.327298 9.177587 -10.339184 -3.965685 9.056815 6.004699 -12.0415 -6.466895 -12.307615 15.843226 -3.17653 9.220905 13.357841 5.471571 -0.508487 2.362565 -11.553004 -10.717434 10.458148 3.876385 
-0.092932 0.551267 -0.095104 3.318268 1.926855 10.131857 10.211041 6.449568 -12.628022 -6.319378 -2.554717 -14.269547 -3.271484 -3.082637 5.767833 17.686617 -9.331732 4.94611 -8.006094 12.347079 3.352198 -12.786824 6.999556 -4.964406 15.568416 -18.405819 -42.359646 1.5479 -47.317989 -11.812716 -9.977807 -9.198695 6.696552 -1.453945 11.862633 20.459904 4.854335 38.545788 52.865356 3.979128 42.489418 13.21307 13.00835 5.614656 5.582747 -22.086699 2.537618 -7.325715 20.572828 3.536923 9.188231 -10.652209 -4.059918 9.090834 6.285909 -12.168077 -6.457532 -13.077503 16.55418 -2.388558 9.791506 14.322947 5.409694 -0.72046 3.414262 -11.50322 -10.752687 10.6165 3.941689 
-0.097245 0.551569 -0.096537 3.958977 1.593579 10.157265 10.327124 6.262348 -13.078686 -5.972393 -2.470093 -14.463356 -3.048903 -3.004016 5.755535 18.070177 -9.042578 4.847366 -7.950002 12.490348 3.268859 -12.505202 7.344298 -4.956788 15.219779 -19.309509 -42.033451 1.512287 -46.985306 -11.900379 -9.995113 -9.211794 6.709307 -1.00982 11.118403 20.65152 3.80421 40.559586 53.014748 4.579344 40.295574 12.544996 13.069839 5.527681 5.630188 -22.625332 2.743114 -6.820328 21.117096 3.496154 9.670794 -11.430787 -3.947679 9.009631 6.382278 -12.121065 -6.444773 -14.496006 16.620253 -1.642378 10.997531 14.912148 5.315192 -0.779514 4.135045 -11.668058 -10.785172 10.65638 4.005259 
-0.098052 0.550761 -0.099131 4.623754 1.273537 10.031466 10.253424 6.244936 -13.336909 -5.591677 -2.430708 -14.643409 -2.839217 -2.922952 5.910114 18.026201 -9.003922 4.724547 -7.910079 12.632856 3.303712 -12.258435 7.685713 -5.101911 15.018934 -20.204268 -41.755085 1.481729 -46.252647 -11.991199 -10.030102 -9.248609 6.722795 -0.590406 10.620683 20.758068 2.994622 42.089489 52.959145 4.912903 38.649258 12.030112 13.128683 5.482664 5.72766 -23.396727 2.883195 -6.46147 22.193125 3.406987 10.164392 -12.352481 -3.822535 8.958197 6.306678 -12.132686 -6.481 -16.245291 16.017061 -1.005662 12.361354 14.746764 5.337709 -0.762042 4.427526 -11.977333 -10.855387 10.698699 4.064367 
-0.097289 0.550406 -0.100637 4.872965 1.270516 9.884357 10.092004 6.302764 -13.288724 -5.271648 -2.456618 -14.669702 -2.552426 -2.755778 5.94075 17.705694 -8.97986 4.653621 -7.775738 12.623086 3.34212 -12.04218 7.786252 -5.224385 15.01453 -20.875731 -41.638359 1.46667 -45.726727 -11.932543 -10.017942 -9.210888 6.680216 -0.414541 10.47048 20.705101 2.473644 42.929634 52.918762 4.968582 37.809086 11.566984 13.06703 5.400597 5.769003 -23.812584 3.124972 -6.261489 23.114809 3.544629 10.207237 -12.944128 -3.659523 8.901884 6.168551 -12.065373 -6.462749 -17.169641 15.343311 -0.691067 13.130973 14.30942 5.266408 -0.847628 4.404791 -12.128287 -10.79522 10.645334 4.074146 
-0.096172 0.550435 -0.101413 4.826303 1.270265 9.801053 10.041398 6.328812 -13.24361 -5.069272 -2.463319 -14.64847 -2.331234 -2.543378 6.036078 17.416155 -8.992444 4.64442 -7.686152 12.609261 3.373171 -11.900803 7.797845 -5.263075 14.974939 -21.347885 -41.689854 1.476973 -45.266209 -11.848503 -10.033649 -9.176771 6.641033 -0.354835 10.44611 20.615276 2.039111 43.386959 52.94632 4.867035 37.11478 11.216067 13.021136 5.345036 5.79283 -23.894938 3.363455 -6.186479 23.698681 3.780274 10.21091 -13.357501 -3.500357 8.875913 6.04491 -12.02625 -6.455819 -17.457066 14.81349 -0.607029 13.386187 13.870974 5.266352 -0.958554 4.294234 -12.237082 -10.749743 10.603035 4.075925 
-0.095033 0.550069 -0.101905 4.814663 1.374231 9.688391 10.03966 6.325613 -13.186073 -4.955455 -2.449932 -14.593883 -2.207594 -2.354185 6.069793 17.203775 -8.990621 4.64545 -7.613158 12.566294 3.36471 -11.812471 7.754771 -5.256449 14.938785 -21.671482 -41.761944 1.534751 -44.8946 -11.724154 -10.036254 -9.128893 6.593807 -0.368608 10.441524 20.535006 1.702255 43.682461 53.033295 4.796959 36.46143 10.947145 12.96649 5.300972 5.780794 -24.219437 3.636905 -6.07608 24.221853 4.04418 10.148335 -13.611433 -3.424545 8.821379 5.950759 -11.974384 -6.44503 -17.702904 14.44628 -0.564616 13.555432 13.55923 5.214004 -1.11465 4.218317 -12.281937 -10.709085 10.546984 4.060626 
-0.093982 0.548938 -0.102317 4.921831 1.522569 9.567085 10.044522 6.312397 -13.097196 -4.883914 -2.411394 -14.543144 -2.145581 -2.200507 6.004126 17.013882 -8.980203 4.635937 -7.556202 12.503756 3.330422 -11.763437 7.680467 -5.22404 14.95493 -21.956758 -41.708096 1.65115 -44.611153 -11.594566 -10.026864 -9.074307 6.541393 -0.428612 10.42309 20.468788 1.456419 44.018833 53.106663 4.833994 35.758995 10.731758 12.903647 5.262717 5.750653 -24.87142 4.002749 -5.916254 24.796198 4.353248 10.016982 -13.773944 -3.414511 8.733306 5.880974 -11.906519 -6.432106 -18.078424 14.25076 -0.47933 13.816779 13.441063 5.044254 -1.349521 4.199807 -12.290651 -10.675297 10.479189 4.03777 
-0.09269 0.54702 -0.103103 5.261892 1.66626 9.39611 9.992049 6.290074 -12.946514 -4.831762 -2.356207 -14.481285 -2.163174 -2.082736 5.828276 16.780296 -8.959561 4.587204 -7.494137 12.406616 3.27145 -11.711951 7.588497 -5.206122 15.07044 -22.290068 -41.508369 1.839704 -44.321491 -11.44946 -10.001291 -8.998788 6.467743 -0.481077 10.366317 20.397114 1.272955 44.446838 53.150658 4.989581 34.959194 10.498619 12.812499 5.211111 5.708023 -26.049953 4.464021 -5.678518 25.656746 4.655494 9.826711 -13.921407 -3.451296 8.591291 5.802633 -11.80056 -6.413507 -18.893467 14.044021 -0.290949 14.397265 13.423007 4.71573 -1.665223 4.21441 -12.276215 -10.634317 10.382105 4.006294 
-0.09116 0.544388 -0.103832 6.090502 1.892281 9.144803 9.659428 6.226341 -12.662366 -4.785818 -2.283507 -14.416016 -2.280173 -2.006935 5.512743 16.301029 -8.944134 4.447634 -7.440057 12.270782 3.187953 -11.573514 7.535938 -5.258691 15.338179 -22.727262 -41.077038 2.142325 -44.066696 -11.270226 -9.967858 -8.897953 6.360114 -0.438384 10.222278 20.371763 1.255327 45.006454 53.079685 5.307582 33.98241 10.191057 12.690187 5.138601 5.663386 -27.965862 5.019973 -5.313947 26.948381 4.900222 9.575033 -14.072902 -3.478828 8.411546 5.699177 -11.644417 -6.394393 -20.475515 13.734237 0.056817 15.527637 13.503736 4.211705 -2.008012 4.208134 -12.264471 -10.594746 10.246176 3.963943 
-0.089579 0.540875 -0.104711 7.565834 2.251069 8.830684 9.056932 6.158947 -12.275286 -4.756793 -2.207355 -14.363306 -2.557196 -2.027818 5.074281 15.649117 -8.981612 4.219522 -7.39322 12.150227 3.09164 -11.38816 7.571105 -5.352052 15.755837 -23.179914 -40.484467 2.447854 -43.834881 -11.068379 -9.955342 -8.800016 6.249966 -0.286768 9.955097 20.38271 1.47625 45.572174 52.838615 5.78391 33.10709 9.835569 12.567063 5.061981 5.63288 -30.863333 5.624371 -4.876176 28.759649 5.131388 9.250725 -14.210964 -3.651546 8.202873 5.596529 -11.494525 -6.376828 -23.02459 13.345109 0.566919 17.31427 13.714581 3.553451 -2.348898 4.231864 -12.227225 -10.593097 10.107304 3.925027 
-0.087683 0.536544 -0.106355 9.973984 2.759439 8.281221 8.08524 6.077151 -11.728596 -4.714329 -2.079775 -14.189498 -2.974617 -2.160789 4.474362 14.572863 -9.007844 3.951684 -7.349051 11.962452 2.976629 -11.021061 7.626798 -5.529836 16.457241 -23.777901 -39.63168 2.993813 -43.687805 -10.766075 -9.924811 -8.650312 6.096482 -0.025835 9.455922 20.481184 1.925719 45.994408 52.570229 6.217676 32.627464 9.486714 12.376733 4.942618 5.579185 -35.380898 6.136102 -4.259462 31.617058 5.217139 8.820195 -14.283008 -3.911283 7.887489 5.456627 -11.26866 -6.339035 -27.17219 12.588456 1.406378 20.301744 13.905494 2.549026 -2.708818 4.301927 -12.123049 -10.594767 9.894016 3.859612 
-0.08548 0.53174 -0.108897 13.758611 3.502403 7.618833 6.646421 5.93364 -11.040624 -4.606835 -1.969199 -13.906533 -3.606579 -2.473908 3.674451 12.979404 -9.094863 3.572775 -7.240188 11.701859 2.82257 -10.457609 7.700406 -5.789669 17.44536 -24.525934 -38.575108 3.797323 -43.655979 -10.409849 -9.822153 -8.431959 5.885437 0.465409 8.709641 20.694227 2.704733 46.339714 52.173939 6.741501 32.201847 8.983833 12.094225 4.773808 5.502996 -41.827187 6.457837 -3.542188 35.470959 5.223123 8.271736 -14.342349 -4.250539 7.47852 5.257367 -10.960023 -6.27425 -33.493519 11.465331 2.472733 24.776899 14.060505 1.266917 -3.073084 4.331079 -11.944073 -10.569221 9.581752 3.772223 
-0.082667 0.527257 -0.111668 19.891464 4.432049 7.00786 4.329312 5.847814 -10.04604 -4.344005 -1.789835 -13.665161 -4.283671 -2.92349 2.5895 10.728636 -9.308586 2.901972 -7.042943 11.438424 2.664814 -9.575572 7.898374 -6.418188 18.863962 -25.316208 -36.98016 4.912769 -44.141567 -10.186564 -9.687426 -8.207806 5.661706 1.348707 7.696094 21.05381 3.773771 46.724049 51.687454 7.40493 31.952736 8.464583 11.778391 4.562442 5.440418 -51.231079 6.803442 -2.94348 40.429443 5.274368 7.569695 -14.439645 -4.749173 7.012704 5.053161 -10.626952 -6.21568 -42.856617 10.251431 3.624052 30.980892 14.565721 -0.31812 -3.404519 4.387333 -11.70982 -10.523417 9.227375 3.701302 
-0.078864 0.522395 -0.114439 26.243326 5.350885 6.021694 1.819647 5.990293 -8.771913 -3.871204 -1.660295 -13.347232 -4.689814 -3.514755 1.320892 8.239831 -9.613857 1.990458 -6.845449 11.126505 2.498234 -8.627328 8.088092 -7.280438 20.483183 -26.088301 -34.997147 6.333216 -45.067612 -10.011698 -9.51591 -7.969544 5.420026 2.319337 6.604391 21.453838 5.239315 46.986397 50.973648 7.963161 31.758236 8.068272 11.448068 4.331802 5.345253 -60.877602 7.281378 -2.235255 45.592937 5.391695 6.699447 -14.443721 -5.204213 6.497051 4.930526 -10.247479 -6.125688 -53.176765 8.625508 4.923572 38.359764 14.887071 -2.03787 -3.611247 4.596908 -11.377676 -10.461654 8.823183 3.629378 
